<svg width="345" height="463" viewBox="0 0 345 463" fill="none" xmlns="http://www.w3.org/2000/svg">
<path opacity="0.139718" fill-rule="evenodd" clip-rule="evenodd" d="M0.629474 162.778C0.163417 164.347 0.00382014 178.989 0 198.171V199.687C0.00806474 239.173 0.642632 371.951 0.630323 375.24C0.556042 394.759 12.1782 415.249 41.3326 435.286C84.0528 464.648 115.756 453.064 146.507 446.084C172.061 440.284 196.148 434.484 223.195 449.537C282.793 482.704 323.797 447.682 386.481 406.265C403.15 395.251 411.014 382.22 411.925 368.138C412.163 364.471 412.69 321.642 412.696 283.054V281.953C412.692 251.433 412.355 223.835 411.28 220.769C399.349 186.737 353.013 192.629 299.501 163.967C241.91 133.122 189.822 115.285 143.602 115.288C118.118 115.289 94.4122 120.713 72.5657 132.37C39.8156 149.844 8.67681 135.71 0.629474 162.778Z" fill="url(#paint0_linear_0_428)"/>
<path fill-rule="evenodd" clip-rule="evenodd" d="M386.481 269.956C323.797 311.373 283.966 275.551 224.369 242.383C164.772 209.216 119.553 277.289 41.3325 223.528C-36.8883 169.766 11.0973 112.751 72.5655 79.9536C134.034 47.1557 210.156 63.6976 299.501 111.551C387.334 158.595 449.165 228.539 386.481 269.956Z" fill="#C59FFF"/>
<path fill-rule="evenodd" clip-rule="evenodd" d="M141.348 173.96C141.466 175.826 143.955 177.128 143.955 177.128L259.115 241.061C259.115 241.061 262.407 243.144 266.373 241.061C270.632 238.824 358.411 187.327 358.411 187.327C358.411 187.327 362.031 185.666 362.286 182.7C362.293 182.826 362.302 182.953 362.302 183.089V187.777C362.302 190.95 358.411 192.733 358.411 192.733C358.411 192.733 270.632 241.355 266.373 243.592C262.407 245.676 259.115 243.592 259.115 243.592L143.955 179.66C143.955 179.66 141.337 178.295 141.337 176.355V174.55C141.339 174.504 141.34 174 141.343 173.642C141.345 173.812 141.347 173.944 141.348 173.96Z" fill="#DDDDFC"/>
<path fill-rule="evenodd" clip-rule="evenodd" d="M143.581 170.16L239.061 114.199C242.503 112.332 244.972 114.199 244.972 114.199L358.411 177.27C358.411 177.27 362.301 179.353 362.301 182.371C362.301 182.482 362.295 182.592 362.286 182.7C362.031 185.666 358.411 187.327 358.411 187.327C358.411 187.327 270.632 238.824 266.373 241.062C262.407 243.145 259.114 241.062 259.114 241.062L143.955 177.129C143.955 177.129 141.466 175.826 141.347 173.96C141.346 173.945 141.345 173.812 141.343 173.642C141.34 173.303 141.336 172.812 141.336 172.781C141.336 171.285 143.581 170.16 143.581 170.16Z" fill="#F6F6FF"/>
<path fill-rule="evenodd" clip-rule="evenodd" d="M366.683 177.658C366.782 177.6 366.876 177.538 366.968 177.474C369.472 175.719 369.06 171.886 369.06 171.886C369.06 171.886 369.064 76.0036 368.832 71.3483C368.616 67.0132 365.047 65.402 365.047 65.402L248.174 1.52694C248.174 1.52694 245.719 0.167391 243.999 1.0429C243.985 1.05024 243.866 1.11793 243.714 1.2052C243.631 1.25332 243.538 1.30633 243.445 1.35934C243.445 1.35934 243.446 1.35934 243.446 1.35893C243.921 1.05676 244.862 0.602903 245.166 0.42878C245.317 0.341514 245.437 0.273822 245.45 0.26689C247.171 -0.609028 250.271 0.951557 250.271 0.951557L367.144 64.827C367.144 64.827 370.712 66.4378 370.928 70.7733C371.16 75.4286 371.156 171.311 371.156 171.311C371.156 171.311 371.568 175.143 369.064 176.899C368.973 176.963 368.879 177.024 368.78 177.083C366.098 178.656 363.474 178.187 363.474 178.187H363.474C364.536 178.318 365.692 178.24 366.683 177.658Z" fill="#DDDDFC"/>
<path fill-rule="evenodd" clip-rule="evenodd" d="M242.944 1.64833C242.965 1.63651 243.201 1.4999 243.445 1.35881C243.537 1.30579 243.63 1.25237 243.714 1.20466C243.866 1.1174 243.984 1.04971 243.998 1.04237C245.719 0.166858 248.174 1.5264 248.174 1.5264L365.047 65.4015C365.047 65.4015 368.616 67.0126 368.831 71.3477C369.064 76.003 369.06 171.886 369.06 171.886C369.06 171.886 369.472 175.718 366.968 177.473C366.877 177.537 366.782 177.599 366.683 177.657C365.692 178.239 364.536 178.318 363.474 178.187C361.662 177.963 360.121 177.129 360.121 177.129L244.912 112.818C244.912 112.818 241.964 111.769 241.83 107.975L241.786 4.8535C241.786 4.8535 241.615 2.42801 242.944 1.64833Z" fill="#F6F6FF"/>
<path fill-rule="evenodd" clip-rule="evenodd" d="M330.325 180.006L330.306 179.866C330.309 179.913 330.315 179.959 330.325 180.006Z" fill="#DDDDFC"/>
<path fill-rule="evenodd" clip-rule="evenodd" d="M330.305 179.859L330.306 179.867C330.306 179.864 330.306 179.862 330.306 179.859H330.305Z" fill="#DDDDFC"/>
<path fill-rule="evenodd" clip-rule="evenodd" d="M345.775 180.875L339.889 184.117C338.825 184.703 338.136 184.647 337.255 184.187L330.919 180.718C330.561 180.506 330.381 180.258 330.325 180.006L330.393 180.506C330.437 180.761 330.664 180.974 330.944 181.14L337.28 184.609C338.161 185.069 338.851 185.125 339.914 184.54L345.801 181.297C346.164 181.097 346.511 180.957 346.546 180.556L346.594 179.821H346.591C346.573 180.224 346.279 180.597 345.775 180.875Z" fill="#DDDDFC"/>
<path fill-rule="evenodd" clip-rule="evenodd" d="M318.705 173.563L318.686 173.424C318.688 173.47 318.695 173.517 318.705 173.563Z" fill="#DDDDFC"/>
<path fill-rule="evenodd" clip-rule="evenodd" d="M318.685 173.416L318.686 173.423V173.416H318.685Z" fill="#DDDDFC"/>
<path fill-rule="evenodd" clip-rule="evenodd" d="M334.155 174.432L328.269 177.674C327.205 178.26 326.516 178.204 325.635 177.744L319.299 174.275C318.941 174.063 318.761 173.815 318.705 173.563L318.772 174.063C318.817 174.319 319.043 174.531 319.324 174.697L325.66 178.167C326.541 178.626 327.23 178.682 328.294 178.096L334.181 174.854C334.543 174.654 334.891 174.514 334.926 174.113L334.973 173.378L334.971 173.378C334.952 173.781 334.659 174.155 334.155 174.432Z" fill="#DDDDFC"/>
<path fill-rule="evenodd" clip-rule="evenodd" d="M322.661 167.897L316.775 171.14C315.712 171.726 315.022 171.67 314.14 171.21L307.805 167.739C307.447 167.528 307.267 167.28 307.211 167.027L307.278 167.528C307.323 167.783 307.55 167.996 307.83 168.161L314.166 171.632C315.047 172.092 315.736 172.148 316.8 171.562L322.686 168.319C323.049 168.119 323.396 167.979 323.432 167.578L323.479 166.843H323.477C323.459 167.245 323.165 167.619 322.661 167.897Z" fill="#DDDDFC"/>
<path fill-rule="evenodd" clip-rule="evenodd" d="M295.999 160.255L295.98 160.116C295.982 160.163 295.989 160.209 295.999 160.255Z" fill="#DDDDFC"/>
<path fill-rule="evenodd" clip-rule="evenodd" d="M295.979 160.109L295.981 160.116V160.109H295.979Z" fill="#DDDDFC"/>
<path fill-rule="evenodd" clip-rule="evenodd" d="M311.449 161.124L305.563 164.366C304.499 164.951 303.81 164.896 302.929 164.436L296.593 160.967C296.235 160.754 296.055 160.507 295.999 160.255L296.066 160.754C296.111 161.01 296.338 161.223 296.618 161.388L302.954 164.858C303.835 165.318 304.525 165.374 305.588 164.788L311.475 161.546C311.837 161.346 312.185 161.205 312.22 160.804L312.268 160.069H312.264C312.247 160.472 311.953 160.846 311.449 161.124Z" fill="#DDDDFC"/>
<path fill-rule="evenodd" clip-rule="evenodd" d="M284.379 153.813L284.36 153.674C284.362 153.72 284.369 153.767 284.379 153.813Z" fill="#DDDDFC"/>
<path fill-rule="evenodd" clip-rule="evenodd" d="M284.359 153.667L284.36 153.675V153.667H284.359Z" fill="#DDDDFC"/>
<path fill-rule="evenodd" clip-rule="evenodd" d="M299.829 154.682L293.943 157.924C292.879 158.51 292.19 158.454 291.309 157.994L284.973 154.524C284.615 154.314 284.435 154.065 284.379 153.813L284.446 154.313C284.491 154.568 284.717 154.781 284.999 154.947L291.335 158.416C292.215 158.876 292.904 158.932 293.968 158.346L299.854 155.104C300.217 154.904 300.565 154.764 300.6 154.363L300.647 153.628L300.645 153.628C300.627 154.031 300.333 154.405 299.829 154.682Z" fill="#DDDDFC"/>
<path fill-rule="evenodd" clip-rule="evenodd" d="M288.335 148.148L282.449 151.389C281.386 151.975 280.696 151.919 279.815 151.459L273.479 147.99C273.121 147.779 272.941 147.53 272.886 147.278L272.953 147.779C272.997 148.034 273.225 148.246 273.505 148.412L279.84 151.88C280.721 152.341 281.411 152.397 282.474 151.811L288.361 148.57C288.724 148.37 289.07 148.229 289.106 147.828L289.154 147.094H289.151C289.133 147.496 288.839 147.87 288.335 148.148Z" fill="#DDDDFC"/>
<path fill-rule="evenodd" clip-rule="evenodd" d="M261.4 140.691L261.401 140.699C261.401 140.696 261.402 140.694 261.401 140.691H261.4Z" fill="#DDDDFC"/>
<path fill-rule="evenodd" clip-rule="evenodd" d="M276.87 141.707L270.984 144.949C269.92 145.535 269.231 145.478 268.349 145.019L262.014 141.549C261.656 141.338 261.476 141.089 261.42 140.837L261.488 141.338C261.531 141.593 261.759 141.805 262.039 141.971L268.375 145.44C269.255 145.901 269.946 145.957 271.008 145.371L276.895 142.129C277.258 141.928 277.605 141.788 277.64 141.387L277.689 140.652H277.686C277.668 141.055 277.374 141.429 276.87 141.707Z" fill="#DDDDFC"/>
<path fill-rule="evenodd" clip-rule="evenodd" d="M249.8 134.395L249.781 134.255C249.783 134.302 249.79 134.348 249.8 134.395Z" fill="#DDDDFC"/>
<path fill-rule="evenodd" clip-rule="evenodd" d="M249.78 134.25L249.781 134.257V134.25H249.78Z" fill="#DDDDFC"/>
<path fill-rule="evenodd" clip-rule="evenodd" d="M265.25 135.264L259.364 138.506C258.3 139.092 257.61 139.035 256.73 138.575L250.393 135.106C250.036 134.895 249.856 134.647 249.8 134.396L249.867 134.895C249.912 135.151 250.138 135.363 250.419 135.529L256.756 138.998C257.636 139.457 258.325 139.514 259.389 138.928L265.275 135.686C265.638 135.487 265.985 135.346 266.021 134.945L266.068 134.21L266.066 134.21C266.047 134.613 265.754 134.986 265.25 135.264Z" fill="#DDDDFC"/>
<path fill-rule="evenodd" clip-rule="evenodd" d="M253.756 128.729L247.87 131.972C246.807 132.558 246.117 132.502 245.236 132.042L238.9 128.571C238.542 128.36 238.363 128.111 238.307 127.859L238.374 128.36C238.418 128.615 238.646 128.827 238.925 128.993L245.261 132.464C246.141 132.925 246.832 132.98 247.895 132.394L253.781 129.151C254.144 128.951 254.491 128.81 254.527 128.409L254.574 127.674H254.572C254.554 128.077 254.26 128.451 253.756 128.729Z" fill="#DDDDFC"/>
<path fill-rule="evenodd" clip-rule="evenodd" d="M318.894 186.541L318.875 186.401C318.877 186.449 318.883 186.494 318.894 186.541Z" fill="#DDDDFC"/>
<path fill-rule="evenodd" clip-rule="evenodd" d="M318.874 186.396L318.875 186.404C318.875 186.4 318.875 186.398 318.875 186.396H318.874Z" fill="#DDDDFC"/>
<path fill-rule="evenodd" clip-rule="evenodd" d="M307.274 180.1L307.255 179.961C307.258 180.007 307.264 180.054 307.274 180.1Z" fill="#DDDDFC"/>
<path fill-rule="evenodd" clip-rule="evenodd" d="M307.254 179.952L307.255 179.96C307.256 179.957 307.255 179.954 307.255 179.952H307.254Z" fill="#DDDDFC"/>
<path fill-rule="evenodd" clip-rule="evenodd" d="M322.724 180.968L316.838 184.21C315.774 184.796 315.085 184.74 314.204 184.28L307.868 180.81C307.51 180.599 307.33 180.351 307.274 180.099L307.341 180.599C307.386 180.855 307.612 181.067 307.894 181.233L314.229 184.702C315.109 185.162 315.799 185.218 316.862 184.632L322.749 181.39C323.112 181.19 323.459 181.05 323.494 180.649L323.542 179.914L323.54 179.914C323.522 180.317 323.228 180.691 322.724 180.968Z" fill="#DDDDFC"/>
<path fill-rule="evenodd" clip-rule="evenodd" d="M311.23 174.432L305.344 177.674C304.28 178.26 303.591 178.204 302.71 177.744L296.373 174.274C296.015 174.063 295.836 173.815 295.78 173.563L295.847 174.063C295.891 174.318 296.118 174.531 296.399 174.696L302.735 178.166C303.615 178.626 304.306 178.682 305.369 178.096L311.255 174.854C311.618 174.654 311.966 174.514 312.001 174.113L312.048 173.378H312.046C312.028 173.78 311.734 174.154 311.23 174.432Z" fill="#DDDDFC"/>
<path fill-rule="evenodd" clip-rule="evenodd" d="M284.568 166.791L284.549 166.653C284.551 166.699 284.557 166.745 284.568 166.791Z" fill="#DDDDFC"/>
<path fill-rule="evenodd" clip-rule="evenodd" d="M284.548 166.645L284.549 166.653C284.549 166.65 284.549 166.647 284.549 166.645H284.548Z" fill="#DDDDFC"/>
<path fill-rule="evenodd" clip-rule="evenodd" d="M300.018 167.66L294.131 170.902C293.068 171.489 292.379 171.433 291.498 170.973L285.162 167.503C284.804 167.29 284.624 167.043 284.568 166.791L284.635 167.29C284.679 167.546 284.907 167.759 285.187 167.925L291.523 171.395C292.403 171.855 293.094 171.911 294.156 171.325L300.043 168.083C300.406 167.882 300.753 167.742 300.789 167.341L300.836 166.606H300.834C300.816 167.009 300.522 167.382 300.018 167.66Z" fill="#DDDDFC"/>
<path fill-rule="evenodd" clip-rule="evenodd" d="M272.947 160.349L272.929 160.21C272.931 160.256 272.938 160.303 272.947 160.349Z" fill="#DDDDFC"/>
<path fill-rule="evenodd" clip-rule="evenodd" d="M272.927 160.202L272.929 160.21C272.929 160.207 272.929 160.205 272.929 160.202H272.927Z" fill="#DDDDFC"/>
<path fill-rule="evenodd" clip-rule="evenodd" d="M288.398 161.217L282.512 164.461C281.448 165.046 280.759 164.99 279.878 164.53L273.541 161.06C273.184 160.848 273.004 160.6 272.947 160.348L273.015 160.848C273.06 161.104 273.286 161.317 273.567 161.482L279.903 164.952C280.783 165.412 281.473 165.469 282.537 164.883L288.423 161.64C288.786 161.44 289.133 161.299 289.168 160.898L289.216 160.163H289.213C289.196 160.566 288.902 160.94 288.398 161.217Z" fill="#DDDDFC"/>
<path fill-rule="evenodd" clip-rule="evenodd" d="M276.904 154.682L271.018 157.926C269.954 158.511 269.264 158.456 268.383 157.995L262.047 154.525C261.689 154.314 261.51 154.065 261.454 153.813L261.521 154.314C261.565 154.569 261.793 154.781 262.073 154.947L268.409 158.418C269.289 158.878 269.979 158.934 271.043 158.348L276.929 155.105C277.292 154.905 277.64 154.764 277.674 154.363L277.722 153.628H277.719C277.701 154.03 277.408 154.405 276.904 154.682Z" fill="#DDDDFC"/>
<path fill-rule="evenodd" clip-rule="evenodd" d="M249.989 147.373L249.97 147.234C249.973 147.28 249.979 147.327 249.989 147.373Z" fill="#DDDDFC"/>
<path fill-rule="evenodd" clip-rule="evenodd" d="M249.969 147.227L249.97 147.235C249.97 147.232 249.97 147.23 249.97 147.227H249.969Z" fill="#DDDDFC"/>
<path fill-rule="evenodd" clip-rule="evenodd" d="M265.438 148.242L259.552 151.484C258.489 152.071 257.799 152.014 256.919 151.555L250.582 148.085C250.225 147.873 250.045 147.625 249.989 147.373L250.056 147.873C250.1 148.129 250.328 148.341 250.607 148.507L256.944 151.977C257.824 152.437 258.514 152.493 259.577 151.907L265.464 148.665C265.827 148.464 266.174 148.324 266.21 147.923L266.257 147.188H266.254C266.237 147.59 265.943 147.964 265.438 148.242Z" fill="#DDDDFC"/>
<path fill-rule="evenodd" clip-rule="evenodd" d="M238.368 140.931L238.349 140.793C238.352 140.838 238.359 140.885 238.368 140.931Z" fill="#DDDDFC"/>
<path fill-rule="evenodd" clip-rule="evenodd" d="M238.349 140.784L238.35 140.792V140.784H238.349Z" fill="#DDDDFC"/>
<path fill-rule="evenodd" clip-rule="evenodd" d="M253.818 141.8L247.932 145.042C246.869 145.628 246.18 145.571 245.299 145.111L238.962 141.642C238.605 141.431 238.425 141.183 238.369 140.93L238.436 141.431C238.481 141.686 238.707 141.898 238.988 142.064L245.324 145.534C246.204 145.994 246.894 146.05 247.957 145.464L253.844 142.222C254.207 142.022 254.554 141.881 254.589 141.48L254.637 140.745L254.634 140.745C254.616 141.148 254.323 141.522 253.818 141.8Z" fill="#DDDDFC"/>
<path fill-rule="evenodd" clip-rule="evenodd" d="M306.543 193.077L306.524 192.937C306.526 192.984 306.533 193.03 306.543 193.077Z" fill="#DDDDFC"/>
<path fill-rule="evenodd" clip-rule="evenodd" d="M306.523 192.931L306.524 192.939C306.523 192.936 306.524 192.934 306.523 192.931H306.523Z" fill="#DDDDFC"/>
<path fill-rule="evenodd" clip-rule="evenodd" d="M294.923 186.635L294.904 186.496C294.906 186.542 294.913 186.588 294.923 186.635Z" fill="#DDDDFC"/>
<path fill-rule="evenodd" clip-rule="evenodd" d="M294.903 186.487L294.904 186.495V186.487H294.903Z" fill="#DDDDFC"/>
<path fill-rule="evenodd" clip-rule="evenodd" d="M310.372 187.504L304.486 190.746C303.423 191.331 302.733 191.275 301.852 190.815L295.516 187.346C295.158 187.135 294.979 186.887 294.923 186.635L294.99 187.134C295.034 187.39 295.261 187.603 295.542 187.768L301.878 191.238C302.758 191.698 303.448 191.754 304.511 191.168L310.398 187.926C310.761 187.726 311.108 187.585 311.143 187.184L311.191 186.449L311.188 186.45C311.17 186.853 310.877 187.226 310.372 187.504Z" fill="#DDDDFC"/>
<path fill-rule="evenodd" clip-rule="evenodd" d="M298.879 180.968L292.992 184.211C291.93 184.797 291.24 184.741 290.358 184.28L284.022 180.81C283.664 180.599 283.485 180.35 283.429 180.098L283.496 180.599C283.54 180.854 283.768 181.067 284.047 181.232L290.384 184.703C291.264 185.163 291.954 185.219 293.018 184.633L298.904 181.39C299.267 181.19 299.614 181.049 299.649 180.648L299.696 179.914H299.695C299.676 180.316 299.383 180.69 298.879 180.968Z" fill="#DDDDFC"/>
<path fill-rule="evenodd" clip-rule="evenodd" d="M272.217 173.327L272.198 173.187C272.2 173.234 272.207 173.28 272.217 173.327Z" fill="#DDDDFC"/>
<path fill-rule="evenodd" clip-rule="evenodd" d="M272.197 173.181L272.198 173.189C272.197 173.186 272.198 173.183 272.197 173.181H272.197Z" fill="#DDDDFC"/>
<path fill-rule="evenodd" clip-rule="evenodd" d="M287.667 174.196L281.781 177.438C280.717 178.024 280.028 177.968 279.146 177.509L272.811 174.039C272.454 173.826 272.273 173.579 272.217 173.327L272.285 173.826C272.328 174.082 272.556 174.295 272.837 174.461L279.172 177.93C280.053 178.39 280.743 178.446 281.806 177.861L287.692 174.618C288.055 174.418 288.402 174.277 288.438 173.877L288.485 173.142H288.482C288.464 173.545 288.17 173.919 287.667 174.196Z" fill="#DDDDFC"/>
<path fill-rule="evenodd" clip-rule="evenodd" d="M260.597 166.885L260.578 166.745C260.58 166.792 260.587 166.838 260.597 166.885Z" fill="#DDDDFC"/>
<path fill-rule="evenodd" clip-rule="evenodd" d="M260.577 166.737L260.578 166.745V166.737H260.577Z" fill="#DDDDFC"/>
<path fill-rule="evenodd" clip-rule="evenodd" d="M276.047 167.753L270.161 170.995C269.097 171.581 268.407 171.525 267.527 171.065L261.19 167.596C260.833 167.384 260.653 167.136 260.597 166.885L260.664 167.384C260.709 167.64 260.935 167.852 261.216 168.018L267.552 171.488C268.433 171.947 269.122 172.003 270.186 171.417L276.072 168.175C276.435 167.975 276.782 167.835 276.818 167.434L276.865 166.699L276.863 166.699C276.844 167.102 276.551 167.476 276.047 167.753Z" fill="#DDDDFC"/>
<path fill-rule="evenodd" clip-rule="evenodd" d="M264.553 161.218L258.667 164.461C257.604 165.046 256.914 164.99 256.033 164.53L249.696 161.06C249.339 160.849 249.159 160.6 249.104 160.348L249.171 160.848C249.215 161.104 249.442 161.317 249.722 161.482L256.058 164.952C256.938 165.413 257.628 165.469 258.692 164.883L264.578 161.64C264.941 161.44 265.288 161.299 265.323 160.899L265.37 160.163H265.368C265.351 160.566 265.057 160.94 264.553 161.218Z" fill="#DDDDFC"/>
<path fill-rule="evenodd" clip-rule="evenodd" d="M237.638 153.908L237.618 153.769C237.621 153.816 237.628 153.862 237.638 153.908Z" fill="#DDDDFC"/>
<path fill-rule="evenodd" clip-rule="evenodd" d="M237.618 153.763L237.619 153.77C237.619 153.767 237.619 153.765 237.619 153.763H237.618Z" fill="#DDDDFC"/>
<path fill-rule="evenodd" clip-rule="evenodd" d="M253.088 154.779L247.202 158.021C246.138 158.607 245.449 158.551 244.567 158.091L238.231 154.621C237.874 154.409 237.693 154.162 237.638 153.91L237.705 154.409C237.749 154.666 237.977 154.878 238.256 155.044L244.593 158.513C245.474 158.973 246.164 159.029 247.227 158.443L253.113 155.201C253.476 155.001 253.823 154.86 253.859 154.46L253.906 153.725H253.904C253.886 154.128 253.592 154.501 253.088 154.779Z" fill="#DDDDFC"/>
<path fill-rule="evenodd" clip-rule="evenodd" d="M226.018 147.467L225.999 147.328C226.001 147.374 226.008 147.42 226.018 147.467Z" fill="#DDDDFC"/>
<path fill-rule="evenodd" clip-rule="evenodd" d="M225.998 147.32L225.999 147.328V147.32H225.998Z" fill="#DDDDFC"/>
<path fill-rule="evenodd" clip-rule="evenodd" d="M241.467 148.336L235.582 151.578C234.518 152.164 233.828 152.108 232.948 151.647L226.611 148.178C226.254 147.967 226.073 147.719 226.018 147.467L226.085 147.967C226.129 148.222 226.356 148.435 226.637 148.6L232.973 152.07C233.853 152.53 234.543 152.586 235.607 152L241.493 148.758C241.856 148.558 242.203 148.418 242.238 148.017L242.285 147.282L242.284 147.282C242.265 147.685 241.971 148.058 241.467 148.336Z" fill="#DDDDFC"/>
<path fill-rule="evenodd" clip-rule="evenodd" d="M242.324 135.368L236.439 138.61C235.375 139.196 234.686 139.14 233.805 138.68L227.469 135.21C227.111 134.999 226.931 134.751 226.875 134.499L226.942 134.999C226.987 135.255 227.213 135.467 227.494 135.633L233.83 139.103C234.711 139.562 235.4 139.618 236.464 139.032L242.35 135.79C242.713 135.59 243.061 135.45 243.095 135.049L243.143 134.314L243.141 134.314C243.122 134.717 242.829 135.091 242.324 135.368Z" fill="#DDDDFC"/>
<path fill-rule="evenodd" clip-rule="evenodd" d="M229.973 141.904L224.088 145.146C223.025 145.732 222.335 145.675 221.454 145.215L215.118 141.745C214.76 141.534 214.58 141.286 214.524 141.034L214.591 141.534C214.635 141.79 214.863 142.002 215.143 142.168L221.479 145.638C222.36 146.098 223.049 146.154 224.113 145.568L229.999 142.325C230.363 142.125 230.709 141.985 230.744 141.584L230.792 140.849L230.789 140.849C230.772 141.252 230.478 141.625 229.973 141.904Z" fill="#DDDDFC"/>
<path fill-rule="evenodd" clip-rule="evenodd" d="M334.196 187.457L315.959 197.196C314.896 197.782 314.207 197.726 313.326 197.266L306.99 193.796C306.631 193.585 306.453 193.337 306.396 193.084L306.464 193.585C306.507 193.84 306.736 194.053 307.015 194.218L313.352 197.688C314.232 198.148 314.922 198.204 315.986 197.619L334.222 187.879C334.585 187.679 334.932 187.538 334.967 187.138L335.015 186.403H335.012C334.994 186.805 334.701 187.179 334.196 187.457Z" fill="#DDDDFC"/>
<path fill-rule="evenodd" clip-rule="evenodd" d="M295.111 199.612L295.092 199.473C295.095 199.52 295.101 199.566 295.111 199.612Z" fill="#DDDDFC"/>
<path fill-rule="evenodd" clip-rule="evenodd" d="M295.092 199.466L295.092 199.473C295.092 199.47 295.093 199.468 295.092 199.466H295.092Z" fill="#DDDDFC"/>
<path fill-rule="evenodd" clip-rule="evenodd" d="M310.562 200.481L304.675 203.724C303.612 204.31 302.922 204.254 302.042 203.794L295.705 200.324C295.348 200.112 295.168 199.864 295.111 199.612L295.179 200.112C295.223 200.368 295.45 200.581 295.73 200.747L302.067 204.216C302.947 204.676 303.637 204.732 304.7 204.147L310.587 200.904C310.95 200.704 311.297 200.563 311.333 200.162L311.38 199.428H311.378C311.359 199.83 311.066 200.204 310.562 200.481Z" fill="#DDDDFC"/>
<path fill-rule="evenodd" clip-rule="evenodd" d="M283.491 193.17L283.472 193.032C283.475 193.078 283.481 193.124 283.491 193.17Z" fill="#DDDDFC"/>
<path fill-rule="evenodd" clip-rule="evenodd" d="M283.472 193.023L283.473 193.031C283.474 193.028 283.473 193.026 283.473 193.023H283.472Z" fill="#DDDDFC"/>
<path fill-rule="evenodd" clip-rule="evenodd" d="M298.941 194.04L293.055 197.282C291.992 197.868 291.302 197.811 290.421 197.351L284.085 193.882C283.728 193.671 283.548 193.423 283.491 193.171L283.558 193.67C283.603 193.926 283.83 194.139 284.111 194.305L290.447 197.774C291.327 198.234 292.016 198.29 293.08 197.704L298.967 194.462C299.33 194.262 299.677 194.121 299.712 193.72L299.759 192.985L299.757 192.986C299.739 193.389 299.445 193.762 298.941 194.04Z" fill="#DDDDFC"/>
<path fill-rule="evenodd" clip-rule="evenodd" d="M287.447 187.504L281.561 190.746C280.498 191.331 279.808 191.276 278.927 190.816L272.591 187.347C272.234 187.136 272.054 186.887 271.998 186.635L272.065 187.135C272.109 187.391 272.337 187.603 272.617 187.769L278.953 191.238C279.833 191.698 280.523 191.753 281.586 191.168L287.473 187.926C287.835 187.727 288.183 187.586 288.218 187.185L288.266 186.451H288.263C288.245 186.853 287.951 187.227 287.447 187.504Z" fill="#DDDDFC"/>
<path fill-rule="evenodd" clip-rule="evenodd" d="M260.785 179.862L260.766 179.723C260.769 179.769 260.775 179.815 260.785 179.862Z" fill="#DDDDFC"/>
<path fill-rule="evenodd" clip-rule="evenodd" d="M260.766 179.715L260.767 179.723C260.767 179.72 260.767 179.718 260.767 179.715H260.766Z" fill="#DDDDFC"/>
<path fill-rule="evenodd" clip-rule="evenodd" d="M276.235 180.731L270.349 183.974C269.286 184.56 268.596 184.504 267.715 184.044L261.379 180.574C261.022 180.362 260.842 180.114 260.785 179.862L260.853 180.362C260.897 180.618 261.124 180.831 261.405 180.997L267.741 184.466C268.621 184.926 269.311 184.982 270.374 184.396L276.261 181.154C276.623 180.954 276.97 180.813 277.006 180.412L277.054 179.678H277.051C277.033 180.08 276.739 180.454 276.235 180.731Z" fill="#DDDDFC"/>
<path fill-rule="evenodd" clip-rule="evenodd" d="M249.165 173.42L249.146 173.281C249.149 173.327 249.155 173.374 249.165 173.42Z" fill="#DDDDFC"/>
<path fill-rule="evenodd" clip-rule="evenodd" d="M249.145 173.273L249.146 173.281V173.273H249.145Z" fill="#DDDDFC"/>
<path fill-rule="evenodd" clip-rule="evenodd" d="M264.615 174.289L258.729 177.532C257.666 178.117 256.976 178.061 256.095 177.601L249.759 174.131C249.402 173.92 249.222 173.672 249.165 173.42L249.232 173.919C249.277 174.175 249.504 174.387 249.784 174.553L256.121 178.024C257.001 178.484 257.69 178.54 258.754 177.954L264.641 174.711C265.003 174.511 265.35 174.37 265.386 173.969L265.434 173.234L265.431 173.234C265.413 173.637 265.119 174.011 264.615 174.289Z" fill="#DDDDFC"/>
<path fill-rule="evenodd" clip-rule="evenodd" d="M253.121 167.753L247.235 170.996C246.172 171.581 245.482 171.525 244.601 171.065L238.265 167.596C237.907 167.385 237.728 167.136 237.671 166.884L237.739 167.384C237.783 167.639 238.01 167.852 238.291 168.017L244.626 171.488C245.507 171.948 246.197 172.003 247.26 171.418L253.147 168.175C253.509 167.975 253.857 167.835 253.892 167.434L253.94 166.699H253.937C253.919 167.102 253.626 167.475 253.121 167.753Z" fill="#DDDDFC"/>
<path fill-rule="evenodd" clip-rule="evenodd" d="M226.206 160.444L226.187 160.306C226.19 160.352 226.196 160.398 226.206 160.444Z" fill="#DDDDFC"/>
<path fill-rule="evenodd" clip-rule="evenodd" d="M226.187 160.297L226.188 160.305C226.187 160.302 226.188 160.3 226.187 160.297H226.187Z" fill="#DDDDFC"/>
<path fill-rule="evenodd" clip-rule="evenodd" d="M241.657 161.314L235.771 164.554C234.707 165.14 234.017 165.084 233.136 164.625L226.8 161.157C226.443 160.944 226.263 160.697 226.207 160.445L226.273 160.944C226.318 161.2 226.545 161.413 226.825 161.579L233.162 165.046C234.042 165.506 234.732 165.562 235.796 164.977L241.682 161.736C242.045 161.536 242.392 161.395 242.428 160.995L242.475 160.26H242.472C242.454 160.663 242.161 161.036 241.657 161.314Z" fill="#DDDDFC"/>
<path fill-rule="evenodd" clip-rule="evenodd" d="M214.586 154.002L214.568 153.863C214.57 153.909 214.577 153.955 214.586 154.002Z" fill="#DDDDFC"/>
<path fill-rule="evenodd" clip-rule="evenodd" d="M214.566 153.856L214.567 153.863V153.856H214.566Z" fill="#DDDDFC"/>
<path fill-rule="evenodd" clip-rule="evenodd" d="M230.036 154.871L224.15 158.114C223.086 158.699 222.397 158.643 221.516 158.183L215.18 154.713C214.822 154.502 214.643 154.254 214.586 154.002L214.653 154.502C214.699 154.758 214.925 154.97 215.206 155.136L221.542 158.606C222.422 159.065 223.112 159.122 224.175 158.536L230.061 155.293C230.424 155.093 230.772 154.953 230.807 154.551L230.855 153.817H230.852C230.834 154.22 230.54 154.593 230.036 154.871Z" fill="#DDDDFC"/>
<path fill-rule="evenodd" clip-rule="evenodd" d="M218.542 148.336L212.656 151.578C211.593 152.164 210.903 152.108 210.022 151.648L203.686 148.178C203.328 147.967 203.148 147.718 203.092 147.466L203.16 147.967C203.204 148.222 203.431 148.435 203.712 148.6L210.047 152.07C210.928 152.53 211.618 152.586 212.681 152L218.568 148.758C218.93 148.558 219.278 148.417 219.313 148.017L219.36 147.282H219.358C219.34 147.684 219.046 148.058 218.542 148.336Z" fill="#DDDDFC"/>
<path fill-rule="evenodd" clip-rule="evenodd" d="M282.764 206.148L282.746 206.008C282.748 206.055 282.754 206.101 282.764 206.148Z" fill="#DDDDFC"/>
<path fill-rule="evenodd" clip-rule="evenodd" d="M282.745 206.001L282.746 206.009V206.001H282.745Z" fill="#DDDDFC"/>
<path fill-rule="evenodd" clip-rule="evenodd" d="M298.215 207.017L292.329 210.26C291.265 210.845 290.576 210.789 289.695 210.33L283.358 206.86C283.001 206.648 282.821 206.4 282.765 206.148L282.832 206.648C282.877 206.903 283.104 207.116 283.384 207.282L289.72 210.751C290.6 211.211 291.291 211.268 292.353 210.682L298.24 207.44C298.603 207.239 298.95 207.099 298.986 206.698L299.034 205.963H299.031C299.012 206.366 298.719 206.739 298.215 207.017Z" fill="#DDDDFC"/>
<path fill-rule="evenodd" clip-rule="evenodd" d="M271.145 199.706L271.126 199.566C271.129 199.613 271.135 199.659 271.145 199.706Z" fill="#DDDDFC"/>
<path fill-rule="evenodd" clip-rule="evenodd" d="M271.125 199.559L271.126 199.567C271.126 199.564 271.126 199.562 271.126 199.559H271.125Z" fill="#DDDDFC"/>
<path fill-rule="evenodd" clip-rule="evenodd" d="M286.594 200.575L280.708 203.817C279.645 204.403 278.956 204.347 278.075 203.887L271.739 200.417C271.382 200.206 271.202 199.958 271.145 199.706L271.212 200.205C271.257 200.461 271.484 200.673 271.764 200.839L278.101 204.309C278.981 204.769 279.67 204.825 280.733 204.239L286.62 200.997C286.983 200.796 287.33 200.656 287.365 200.255L287.413 199.52L287.41 199.52C287.392 199.923 287.099 200.297 286.594 200.575Z" fill="#DDDDFC"/>
<path fill-rule="evenodd" clip-rule="evenodd" d="M275.101 194.038L269.215 197.281C268.152 197.867 267.462 197.81 266.581 197.35L214.454 167.716C214.096 167.505 213.916 167.256 213.859 167.004L213.927 167.504C213.972 167.759 214.199 167.972 214.479 168.137L266.607 197.772C267.487 198.233 268.177 198.288 269.24 197.703L275.127 194.461C275.489 194.261 275.836 194.12 275.872 193.719L275.92 192.984H275.916C275.899 193.387 275.605 193.761 275.101 194.038Z" fill="#DDDDFC"/>
<path fill-rule="evenodd" clip-rule="evenodd" d="M248.439 186.397L248.42 186.259C248.423 186.306 248.429 186.352 248.439 186.397Z" fill="#DDDDFC"/>
<path fill-rule="evenodd" clip-rule="evenodd" d="M248.419 186.25L248.42 186.258C248.42 186.255 248.42 186.252 248.42 186.25H248.419Z" fill="#DDDDFC"/>
<path fill-rule="evenodd" clip-rule="evenodd" d="M236.819 179.956L236.8 179.816C236.803 179.862 236.809 179.909 236.819 179.956Z" fill="#DDDDFC"/>
<path fill-rule="evenodd" clip-rule="evenodd" d="M236.799 179.809L236.8 179.817V179.809H236.799Z" fill="#DDDDFC"/>
<path fill-rule="evenodd" clip-rule="evenodd" d="M213.86 166.979L213.841 166.84C213.843 166.887 213.849 166.933 213.86 166.979Z" fill="#DDDDFC"/>
<path fill-rule="evenodd" clip-rule="evenodd" d="M213.84 166.832L213.841 166.84C213.84 166.837 213.841 166.834 213.84 166.832H213.84Z" fill="#DDDDFC"/>
<path fill-rule="evenodd" clip-rule="evenodd" d="M202.24 160.537L202.221 160.397C202.223 160.443 202.23 160.49 202.24 160.537Z" fill="#DDDDFC"/>
<path fill-rule="evenodd" clip-rule="evenodd" d="M202.22 160.391L202.221 160.398V160.391H202.22Z" fill="#DDDDFC"/>
<path fill-rule="evenodd" clip-rule="evenodd" d="M217.689 161.406L211.803 164.649C210.74 165.235 210.05 165.178 209.17 164.718L202.834 161.249C202.476 161.037 202.297 160.789 202.24 160.537L202.307 161.037C202.352 161.293 202.579 161.505 202.859 161.671L209.196 165.141C210.076 165.6 210.765 165.657 211.828 165.071L217.715 161.828C218.078 161.628 218.425 161.488 218.46 161.087L218.508 160.352H218.506C218.487 160.755 218.193 161.129 217.689 161.406Z" fill="#DDDDFC"/>
<path fill-rule="evenodd" clip-rule="evenodd" d="M206.196 154.871L200.31 158.113C199.247 158.699 198.557 158.643 197.676 158.183L191.34 154.713C190.982 154.502 190.802 154.253 190.746 154.001L190.814 154.502C190.858 154.757 191.085 154.97 191.365 155.135L197.701 158.605C198.582 159.065 199.271 159.121 200.335 158.536L206.221 155.293C206.584 155.093 206.931 154.952 206.966 154.551L207.014 153.816H207.011C206.993 154.219 206.7 154.593 206.196 154.871Z" fill="#DDDDFC"/>
<path fill-rule="evenodd" clip-rule="evenodd" d="M243.585 7.801L243.627 105.581C243.754 109.178 246.549 110.172 246.549 110.172L358.785 173.165C358.785 173.165 360.247 173.955 361.964 174.167C362.972 174.291 364.067 174.217 365.007 173.665C365.101 173.61 365.193 173.554 365.277 173.491C367.285 171.988 367.261 168.192 367.261 168.192V72.863C367.056 68.7529 363.456 67.2254 363.456 67.2254L247.712 3.59554C247.712 3.59554 245.48 2.38851 244.504 3.45119C243.467 4.58115 243.585 5.2703 243.585 7.801Z" fill="#C86DD7"/>
<path fill-rule="evenodd" clip-rule="evenodd" d="M274.431 27.6424V120.774L335.535 154.391V61.259L274.431 27.6424Z" fill="white"/>
<path fill-rule="evenodd" clip-rule="evenodd" d="M274.431 34.503L335.535 68.1185V101.907L274.431 68.2904V34.503Z" fill="#DDDDFC"/>
<path fill-rule="evenodd" clip-rule="evenodd" d="M281.787 91.4091V100.379L293.912 107.014V98.1672L281.787 91.4091Z" fill="#DDDDFC"/>
<path fill-rule="evenodd" clip-rule="evenodd" d="M288.998 81.7334V84.3745L320.246 101.73V99.2106L288.998 81.7334Z" fill="#DDDDFC"/>
<path fill-rule="evenodd" clip-rule="evenodd" d="M294.279 89.2128V91.4089L315.08 102.825V100.752L294.279 89.2128Z" fill="#DDDDFC"/>
<path fill-rule="evenodd" clip-rule="evenodd" d="M281.787 101.73V102.897L293.912 109.532V108.487L281.787 101.73Z" fill="#DDDDFC"/>
<path fill-rule="evenodd" clip-rule="evenodd" d="M281.787 104.508V105.676L291.431 111.01V109.966L281.787 104.508Z" fill="#DDDDFC"/>
<path fill-rule="evenodd" clip-rule="evenodd" d="M298.196 100.483V109.452L310.32 116.088V107.241L298.196 100.483Z" fill="#DDDDFC"/>
<path fill-rule="evenodd" clip-rule="evenodd" d="M298.196 110.804V111.971L310.32 118.606V117.562L298.196 110.804Z" fill="#DDDDFC"/>
<path fill-rule="evenodd" clip-rule="evenodd" d="M298.196 113.377V114.544L307.841 119.879V118.834L298.196 113.377Z" fill="#DDDDFC"/>
<path fill-rule="evenodd" clip-rule="evenodd" d="M314.55 109.557V118.527L326.673 125.162V116.315L314.55 109.557Z" fill="#DDDDFC"/>
<path fill-rule="evenodd" clip-rule="evenodd" d="M314.581 132.278V136.531L325.275 142.381V138.252L314.581 132.278Z" fill="#DDDDFC"/>
<path fill-rule="evenodd" clip-rule="evenodd" d="M314.55 119.879V121.046L326.673 127.681V126.636L314.55 119.879Z" fill="#DDDDFC"/>
<path fill-rule="evenodd" clip-rule="evenodd" d="M314.581 122.433V123.6L324.225 128.935V127.891L314.581 122.433Z" fill="#DDDDFC"/>
<path fill-rule="evenodd" clip-rule="evenodd" d="M314.581 132.278L315.349 131.904L325.913 137.876L325.275 138.252L314.581 132.278Z" fill="#E4E4F4"/>
<path fill-rule="evenodd" clip-rule="evenodd" d="M325.275 138.252L325.913 137.876V142.006L325.275 142.381V138.252Z" fill="#CECEEF"/>
<path fill-rule="evenodd" clip-rule="evenodd" d="M278.046 32.4978C278.543 32.1025 279.317 32.2152 279.775 32.749C280.233 33.2828 280.202 34.0363 279.704 34.4317C279.207 34.827 278.433 34.7147 277.974 34.1809C277.516 33.6467 277.548 32.8936 278.046 32.4978Z" fill="#E8F0F4"/>
<path fill-rule="evenodd" clip-rule="evenodd" d="M143.299 129.425C143.299 129.425 78.6266 165.498 76.504 166.68C72.7963 168.747 69.4676 166.358 69.4676 166.358L27.3086 142.952C27.3086 142.952 26.0914 142.418 26.0655 141.053C26.0642 141.046 26.0625 141.04 26.0625 141.034V143.31C26.0625 144.297 27.5629 145.127 27.5629 145.127L69.8231 168.999C69.8231 168.999 73.0447 171.114 76.7464 169.006C78.8571 167.804 143.299 131.394 143.299 131.394C143.299 131.394 145.261 130.486 145.261 128.872V127.434C145.121 128.612 143.299 129.425 143.299 129.425Z" fill="#DDDDFC"/>
<path fill-rule="evenodd" clip-rule="evenodd" d="M142.634 124.609L102.678 101.99C102.678 101.99 99.2059 99.5372 95.2235 101.777L27.3745 139.119C27.3745 139.119 26.0625 139.729 26.0625 141.009C26.0625 141.024 26.0642 141.037 26.0655 141.052C26.0914 142.417 27.3086 142.951 27.3086 142.951L69.4676 166.357C69.4676 166.357 72.7963 168.746 76.504 166.68C78.6266 165.497 143.299 129.424 143.299 129.424C143.299 129.424 145.121 128.611 145.261 127.432C145.422 126.085 142.634 124.609 142.634 124.609Z" fill="#F6F6FF"/>
<path fill-rule="evenodd" clip-rule="evenodd" d="M138.902 127.579L81.497 159.509L40.3417 136.642L97.3943 104.414L138.902 127.579Z" fill="#C86DD7"/>
<path fill-rule="evenodd" clip-rule="evenodd" d="M51.0052 150.862C51.0052 149.887 52.3619 149.097 54.0354 149.097C55.7081 149.097 57.0656 149.887 57.0656 150.862C57.0656 151.837 55.7081 152.627 54.0354 152.627C52.3619 152.627 51.0052 151.837 51.0052 150.862ZM50.7661 150.861C50.7661 151.914 52.2296 152.767 54.0354 152.767C55.8403 152.767 57.3038 151.914 57.3038 150.861C57.3038 149.81 55.8403 148.957 54.0354 148.957C52.2296 148.957 50.7661 149.81 50.7661 150.861Z" fill="#D8D8D8"/>
<path fill-rule="evenodd" clip-rule="evenodd" d="M160.617 62.7912L160.652 63.4737C160.926 68.0016 163.192 93.539 179.603 98.0027C192.759 101.291 196.483 96.5351 196.906 95.9135L198.86 57.4378H160.346L160.617 62.7834V62.7912Z" fill="white"/>
<path fill-rule="evenodd" clip-rule="evenodd" d="M179.603 98.0036C163.193 93.5398 160.926 68.0015 160.652 63.4734L162.433 98.5243C162.433 103.848 170.12 108.165 179.603 108.165C189.086 108.165 196.773 103.848 196.773 98.5243L196.906 95.9144C196.484 96.536 192.759 101.292 179.603 98.0036Z" fill="#F6F6FF"/>
<path fill-rule="evenodd" clip-rule="evenodd" d="M179.603 104.692C170.544 104.692 163.102 100.811 162.258 95.8483C162.205 96.1585 162.176 96.472 162.176 96.7895C162.176 102.194 169.979 106.576 179.603 106.576C189.228 106.576 197.03 102.194 197.03 96.7895C197.03 96.472 197.001 96.1585 196.948 95.8483C196.104 100.811 188.662 104.692 179.603 104.692Z" fill="#F0F0FC"/>
<path fill-rule="evenodd" clip-rule="evenodd" d="M198.453 56.1967C198.453 62.0422 190.014 66.7805 179.603 66.7805C169.192 66.7805 160.752 62.0422 160.752 56.1967C160.752 50.3513 169.192 45.6134 179.603 45.6134C190.014 45.6134 198.453 50.3513 198.453 56.1967Z" fill="white"/>
<path fill-rule="evenodd" clip-rule="evenodd" d="M179.603 69.7855C169.629 69.7855 161.434 65.5114 160.505 60.0465C160.447 60.3884 160.415 60.734 160.415 61.0837C160.415 67.0343 169.006 71.8591 179.603 71.8591C190.2 71.8591 198.792 67.0343 198.792 61.0837C198.792 60.734 198.759 60.3884 198.701 60.0465C197.772 65.5114 189.577 69.7855 179.603 69.7855Z" fill="#F0F0FC"/>
<path fill-rule="evenodd" clip-rule="evenodd" d="M179.603 60.7476C169.809 60.7476 161.763 56.5505 160.851 51.1849C160.793 51.5202 160.762 51.8596 160.762 52.2036C160.762 58.0462 169.197 62.7837 179.603 62.7837C190.009 62.7837 198.444 58.0462 198.444 52.2036C198.444 51.8596 198.412 51.5202 198.356 51.1849C197.443 56.5505 189.396 60.7476 179.603 60.7476Z" fill="#FCFCFC"/>
<path fill-rule="evenodd" clip-rule="evenodd" d="M179.984 66.5671C187.296 67.2262 191.76 66.1972 194.476 64.8108C196.262 63.6759 197.641 62.336 198.489 60.8609C198.576 60.6364 198.606 60.5038 198.606 60.5038C198.606 60.5038 198.627 60.5153 198.666 60.5339C199.171 59.551 199.448 58.5126 199.448 57.4375C199.448 51.2831 190.563 46.2945 179.603 46.2945C170.81 46.2945 163.358 49.507 160.752 53.9544C160.743 54.2641 160.562 65.0567 179.984 66.5671Z" fill="white"/>
<path fill-rule="evenodd" clip-rule="evenodd" d="M179.603 68.5803C185.527 68.5803 190.841 67.1214 194.477 64.8102C191.76 66.1967 187.296 67.2256 179.984 66.5665C160.562 65.0561 160.743 54.2644 160.752 53.9543C160.11 55.0503 159.758 56.2209 159.758 57.4377C159.758 63.5914 168.644 68.5803 179.603 68.5803Z" fill="#F6F6FF"/>
<path fill-rule="evenodd" clip-rule="evenodd" d="M198.354 52.3608C198.354 58.1756 189.959 62.8898 179.603 62.8898C169.247 62.8898 160.852 58.1756 160.852 52.3608C160.852 46.5456 169.247 41.8318 179.603 41.8318C189.959 41.8318 198.354 46.5456 198.354 52.3608Z" fill="white"/>
<path fill-rule="evenodd" clip-rule="evenodd" d="M179.603 41.9544C169.334 41.9544 160.978 46.6225 160.978 52.3607C160.978 58.0989 169.334 62.7666 179.603 62.7666C189.873 62.7666 198.227 58.0989 198.227 52.3607C198.227 46.6225 189.873 41.9544 179.603 41.9544ZM179.603 63.0115C169.193 63.0115 160.725 58.2337 160.725 52.3603C160.725 46.4869 169.193 41.7087 179.603 41.7087C190.012 41.7087 198.481 46.4869 198.481 52.3603C198.481 58.2337 190.012 63.0115 179.603 63.0115Z" fill="#F7F7F7"/>
<path fill-rule="evenodd" clip-rule="evenodd" d="M178.332 58.6212H182.514C182.619 58.6212 182.719 58.643 182.809 58.6817C182.809 58.6735 182.811 58.6652 182.811 58.657C182.811 58.2638 182.482 57.9447 182.076 57.9447H177.893C177.487 57.9447 177.157 58.2638 177.157 58.657C177.157 58.9493 177.339 59.1993 177.598 59.3096C177.612 58.9279 177.934 58.6212 178.332 58.6212Z" fill="#DADEE0"/>
<path fill-rule="evenodd" clip-rule="evenodd" d="M182.075 59.3705C182.473 59.3705 182.796 59.0638 182.809 58.6817C182.719 58.6429 182.619 58.6211 182.513 58.6211H178.332C177.934 58.6211 177.611 58.9278 177.599 59.3104C177.689 59.3487 177.788 59.3705 177.893 59.3705H182.075Z" fill="#E8E8E8"/>
<defs>
<linearGradient id="paint0_linear_0_428" x1="392.032" y1="427.925" x2="392.032" y2="115.288" gradientUnits="userSpaceOnUse">
<stop stop-color="white"/>
<stop offset="1" stop-color="#DDDDFF"/>
</linearGradient>
</defs>
</svg>
